<svg width="60" height="60" viewBox="0 0 60 60" fill="none" xmlns="http://www.w3.org/2000/svg">
    <g clip-path="url(#clip0_26:49)">
        <path d="M33 45L27 45L27 24L33 24L33 45ZM33 21L27 21L27 15L33 15L33 21Z" fill="#EFEFEF"/>
        <path d="M0.878984 44.121L15.879 59.121C16.1571 59.4001 16.4877 59.6215 16.8517 59.7723C17.2157 59.9232 17.606 60.0006 18 60L42 60C42.394 60.0006 42.7843 59.9232 43.1483 59.7723C43.5123 59.6215 43.8429 59.4001 44.121 59.121L59.121 44.121C59.4001 43.8429 59.6215 43.5123 59.7723 43.1483C59.9232 42.7843 60.0006 42.394 60 42L60 18C60 17.202 59.685 16.44 59.121 15.879L44.121 0.878989C43.8429 0.599864 43.5123 0.3785 43.1483 0.227644C42.7843 0.0767884 42.394 -0.000577558 42 -9.20301e-06L18 -1.13012e-05C17.202 -1.13709e-05 16.44 0.314987 15.879 0.878986L0.878986 15.879C0.599857 16.1571 0.378494 16.4877 0.227642 16.8517C0.076786 17.2157 -0.000583757 17.606 -1.1587e-05 18L-1.36852e-05 42C-0.000585924 42.394 0.0767837 42.7843 0.22764 43.1483C0.378492 43.5123 0.599855 43.8429 0.878984 44.121ZM5.99999 19.242L19.242 5.99999L40.758 5.99999L54 19.242L54 40.758L40.758 54L19.242 54L5.99999 40.758L5.99999 19.242Z"
              fill="#EFEFEF"/>
    </g>
    <defs>
        <clipPath id="clip0_26:49">
            <rect width="60" height="60" fill="white" transform="translate(60 60) rotate(-180)"/>
        </clipPath>
    </defs>
</svg>
