<svg width="60" height="60" viewBox="0 0 60 60" fill="none" xmlns="http://www.w3.org/2000/svg">
    <g clip-path="url(#clip0_5:21)">
        <path d="M27 15H33V36H27V15ZM27 39H33V45H27V39Z" fill="#CF291D"/>
        <path d="M59.121 15.879L44.121 0.879003C43.8429 0.599875 43.5123 0.378512 43.1483 0.227656C42.7843 0.0768004 42.394 -0.000568347 42 3.14302e-06H18C17.606 -0.000568347 17.2157 0.0768004 16.8517 0.227656C16.4877 0.378512 16.1571 0.599875 15.879 0.879003L0.879003 15.879C0.599875 16.1571 0.378512 16.4877 0.227656 16.8517C0.0768004 17.2157 -0.000568347 17.606 3.14302e-06 18V42C3.14302e-06 42.798 0.315003 43.56 0.879003 44.121L15.879 59.121C16.1571 59.4001 16.4877 59.6215 16.8517 59.7724C17.2157 59.9232 17.606 60.0006 18 60H42C42.798 60 43.56 59.685 44.121 59.121L59.121 44.121C59.4001 43.8429 59.6215 43.5123 59.7724 43.1483C59.9232 42.7843 60.0006 42.394 60 42V18C60.0006 17.606 59.9232 17.2157 59.7724 16.8517C59.6215 16.4877 59.4001 16.1571 59.121 15.879ZM54 40.758L40.758 54H19.242L6 40.758V19.242L19.242 6H40.758L54 19.242V40.758Z"
              fill="#CF291D"/>
    </g>
    <defs>
        <clipPath id="clip0_5:21">
            <rect width="60" height="60" fill="white"/>
        </clipPath>
    </defs>
</svg>
