<svg width="60" height="60" viewBox="0 0 60 60" fill="none" xmlns="http://www.w3.org/2000/svg">
    <path d="M30 0.402686C24.1462 0.402686 18.4239 2.13854 13.5566 5.39073C8.68937 8.64292 4.89581 13.2654 2.65566 18.6736C0.415509 24.0818 -0.170616 30.0328 0.971403 35.7741C2.11342 41.5155 4.93229 46.7892 9.07155 50.9285C13.2108 55.0677 18.4845 57.8866 24.2259 59.0286C29.9672 60.1706 35.9182 59.5845 41.3264 57.3443C46.7346 55.1042 51.3571 51.3106 54.6093 46.4434C57.8615 41.5761 59.5973 35.8538 59.5973 30C59.5973 22.1503 56.479 14.6221 50.9285 9.07154C45.3779 3.52096 37.8497 0.402686 30 0.402686ZM30 55.2414C25.0077 55.2414 20.1276 53.761 15.9766 50.9874C11.8257 48.2139 8.59046 44.2717 6.68 39.6595C4.76954 35.0472 4.26967 29.972 5.24362 25.0756C6.21756 20.1793 8.62157 15.6817 12.1516 12.1516C15.6817 8.62156 20.1793 6.21755 25.0757 5.24361C29.972 4.26966 35.0472 4.76952 39.6595 6.67999C44.2717 8.59045 48.2139 11.8257 50.9875 15.9766C53.761 20.1276 55.2414 25.0077 55.2414 30C55.2414 36.6944 52.582 43.1147 47.8484 47.8484C43.1147 52.582 36.6944 55.2414 30 55.2414Z"
          fill="#CCED00" stroke="#CCED00" stroke-width="0.7"/>
    <path d="M45.5258 19.0379L45.5259 19.0377C45.9152 18.6507 46.4419 18.4335 46.9909 18.4335C47.5397 18.4335 48.0663 18.6506 48.4556 19.0375C48.4557 19.0376 48.4558 19.0377 48.4558 19.0377L45.5258 19.0379ZM45.5258 19.0379L25.4122 39.0608L14.6241 28.2727C14.2448 27.8651 13.7195 27.6242 13.1629 27.6029C12.6047 27.5815 12.0609 27.7827 11.6511 28.1623C11.2413 28.5418 10.999 29.0686 10.9776 29.6268C10.9562 30.185 11.1574 30.7288 11.537 31.1387L11.5369 31.1388L11.5439 31.1458L25.2353 44.8006L25.4119 44.9767L25.5884 44.8006L48.4556 21.9882C48.4558 21.9881 48.4559 21.9879 48.4561 21.9878M45.5258 19.0379L48.4561 21.9878M48.4561 21.9878L48.4561 21.9877L48.2796 21.8107L48.4561 21.9878Z"
          fill="#CCED00" stroke="#CCED00" stroke-width="0.5"/>
</svg>
